<?xml version="1.0" encoding="UTF-8" ?>
<!DOCTYPE svg PUBLIC "-//W3C//DTD SVG 1.1//EN" "http://www.w3.org/Graphics/SVG/1.1/DTD/svg11.dtd">
<svg width="30pt" height="50pt" viewBox="0 0 30 50" version="1.1" xmlns="http://www.w3.org/2000/svg">
<g id="#00a7dd">
<path fill="#d12f22" opacity="1.00" d=" M 1.71 17.02 C -0.35 9.21 5.79 0.38 13.98 0.16 C 20.32 -0.58 26.56 3.98 28.14 10.08 C 29.47 14.79 27.92 19.68 25.96 23.97 C 22.78 30.75 18.67 37.04 15.00 43.57 C 10.35 34.86 4.06 26.76 1.71 17.02 M 12.46 9.31 C 9.41 11.02 9.40 15.93 12.45 17.64 C 15.58 20.04 20.43 16.81 19.84 13.03 C 19.72 9.60 15.29 7.18 12.46 9.31 Z" />
<path fill="#d12f22" opacity="1.00" d=" M 0.66 44.89 C -1.62 40.62 3.29 37.55 6.77 36.51 C 7.38 37.66 8.02 38.79 8.69 39.91 C 6.70 40.52 4.48 41.02 3.39 43.01 C 6.65 45.68 11.00 46.21 15.07 46.35 C 19.08 46.20 23.35 45.65 26.58 43.06 C 25.64 40.95 23.27 40.57 21.32 39.91 C 22.01 38.79 22.65 37.66 23.26 36.50 C 26.73 37.57 31.63 40.60 29.37 44.88 C 26.15 49.31 20.03 49.83 14.98 49.92 C 9.95 49.83 3.87 49.30 0.66 44.89 Z" />
</g>
</svg>
