<?xml version="1.0" encoding="UTF-8" standalone="no"?>
<!-- Generator: Adobe Illustrator 19.0.1, SVG Export Plug-In . SVG Version: 6.00 Build 0)  -->

<svg
   xmlns:dc="http://purl.org/dc/elements/1.1/"
   xmlns:cc="http://creativecommons.org/ns#"
   xmlns:rdf="http://www.w3.org/1999/02/22-rdf-syntax-ns#"
   xmlns:svg="http://www.w3.org/2000/svg"
   xmlns="http://www.w3.org/2000/svg"
   xmlns:sodipodi="http://sodipodi.sourceforge.net/DTD/sodipodi-0.dtd"
   xmlns:inkscape="http://www.inkscape.org/namespaces/inkscape"
   version="1.1"
   id="Layer_1"
   x="0px"
   y="0px"
   viewBox="0 0 772.49998 342.00001"
   xml:space="preserve"
   inkscape:version="0.91 r13725"
   sodipodi:docname="logo.svg"
   width="772.5"
   height="342"><metadata
     id="metadata3493"><rdf:RDF><cc:Work
         rdf:about=""><dc:format>image/svg+xml</dc:format><dc:type
           rdf:resource="http://purl.org/dc/dcmitype/StillImage" /><dc:title></dc:title></cc:Work></rdf:RDF></metadata><defs
     id="defs3491" /><sodipodi:namedview
     pagecolor="#ffffff"
     bordercolor="#666666"
     borderopacity="1"
     objecttolerance="10"
     gridtolerance="10"
     guidetolerance="10"
     inkscape:pageopacity="0"
     inkscape:pageshadow="2"
     inkscape:window-width="1366"
     inkscape:window-height="715"
     id="namedview3489"
     showgrid="false"
     inkscape:zoom="0.39643878"
     inkscape:cx="389.45001"
     inkscape:cy="159.55002"
     inkscape:window-x="-8"
     inkscape:window-y="-8"
     inkscape:window-maximized="1"
     inkscape:current-layer="Layer_1"
     fit-margin-top="0"
     fit-margin-left="0"
     fit-margin-right="0"
     fit-margin-bottom="0" /><style
     type="text/css"
     id="style3445">
	.st0{fill:#404041;}
	.st1{fill:#0AABE1;}
	.st2{font-family:'Arial'; font-weight: bold;}
	.st3{font-size:149.4084px;}
</style><g
     id="g3447"
     transform="translate(-31.5,-115.2)"><path
       class="st0"
       d="m 249.9,367.6 c -13.1,7.2 -28.2,11.4 -44.2,11.4 -50.7,0 -91.9,-41.2 -91.9,-91.9 0,-50.7 41.2,-91.9 91.9,-91.9 35.8,0 66.9,20.6 82.1,50.7 l 16.4,0 C 288.1,207.4 250.1,180.4 205.7,180.4 146.8,180.4 99,228.2 99,287.1 c 0,58.9 47.8,106.7 106.7,106.7 26.8,0 51.3,-9.9 70,-26.2 l -25.8,0 z"
       id="path3449"
       inkscape:connector-curvature="0"
       style="fill:#404041" /><g
       id="g3451"><path
         class="st0"
         d="m 332.6,369.1 c -27,41.6 -73.8,69.2 -126.9,69.2 -83.4,0 -151.2,-67.8 -151.2,-151.2 0,-83.4 67.8,-151.2 151.2,-151.2 69.1,0 127.5,46.6 145.5,110 l 4.6,0 C 337.7,180 277.3,131.5 205.7,131.5 119.9,131.4 50,201.3 50,287.1 c 0,85.8 69.8,155.6 155.6,155.6 55.7,0 104.7,-29.5 132.2,-73.6 l -5.2,0 z"
         id="path3453"
         inkscape:connector-curvature="0"
         style="fill:#404041" /></g><circle
       class="st0"
       cx="205.7"
       cy="438.70001"
       r="18.5"
       id="circle3455"
       style="fill:#404041" /><circle
       class="st0"
       cx="205.7"
       cy="133.7"
       r="18.5"
       id="circle3457"
       style="fill:#404041" /><circle
       class="st0"
       cx="50"
       cy="288.60001"
       r="18.5"
       id="circle3459"
       style="fill:#404041" /></g><path
     class="st1"
     d="m 222.9,252.4 c -13.1,7.2 -28.2,11.4 -44.2,11.4 -50.7,0 -91.9,-41.2 -91.9,-91.9 0,-50.7 41.2,-91.899997 91.9,-91.899997 35.8,0 66.9,20.599997 82.1,50.699997 l 16.4,0 C 261.1,92.200003 223.1,65.200003 178.7,65.200003 119.8,65.200003 72,113 72,171.9 c 0,58.9 47.8,106.7 106.7,106.7 26.8,0 51.3,-9.9 70,-26.2 l -25.8,0 z"
     id="path3461"
     inkscape:connector-curvature="0"
     style="fill:#0aabe1" /><g
     id="g3463"
     transform="translate(-31.5,-115.2)"><path
       class="st1"
       d="m 337.1,369.1 c -27,41.6 -73.8,69.2 -126.9,69.2 C 126.8,438.3 59,370.5 59,287.1 c 0,-83.4 67.8,-151.2 151.2,-151.2 69.1,0 127.5,46.6 145.5,110 l 4.6,0 C 342.2,180 281.8,131.5 210.2,131.5 c -85.8,0 -155.6,69.8 -155.6,155.6 0,85.8 69.8,155.6 155.6,155.6 55.7,0 104.7,-29.5 132.2,-73.6 l -5.3,0 z"
       id="path3465"
       inkscape:connector-curvature="0"
       style="fill:#0aabe1" /></g><circle
     class="st1"
     cx="178.60001"
     cy="323.5"
     r="18.5"
     id="circle3467"
     style="fill:#0aabe1" /><circle
     class="st1"
     cx="178.60001"
     cy="18.5"
     r="18.5"
     id="circle3469"
     style="fill:#0aabe1" /><circle
     class="st1"
     cx="23"
     cy="173.40001"
     r="18.5"
     id="circle3471"
     style="fill:#0aabe1" /><path
     class="st0"
     d="m 222.4,227.2 -19.5,0 0,-68.3 -46.7,55.9 0,12.4 -19.5,0 0,-104.3 19.5,0 0,67.7 46.7,-55.9 0,-11.8 19.5,0 0,104.3 z"
     id="path3473"
     inkscape:connector-curvature="0"
     style="fill:#404041" /><path
     class="st0"
     d="m 261.4,153.3 0,26.9 31.3,0 0,-26.9 17.8,0 0,73.9 -17.7,0 0,-31.3 -31.3,0 0,31.3 -17.7,0 0,-73.9 17.6,0 z"
     id="path3475"
     inkscape:connector-curvature="0"
     style="fill:#404041" /><path
     class="st0"
     d="m 343.7,193.8 c 0.3,3.7 3.7,18.3 20.8,18.3 12.6,0 17.9,-7.7 19.4,-10.2 l 15.1,8.7 c -5.9,8 -16.7,18.8 -36.1,18.8 -22,0 -38,-15.1 -38,-39.6 0,-26.5 17.9,-38.7 37.1,-38.7 28.2,0 36.4,22.6 36.4,42.7 l -54.7,0 z m 35.2,-13 c -0.3,-3.7 -2.7,-15.5 -16.6,-15.5 -14.6,0 -17.4,12.6 -18,15.5 l 34.6,0 z"
     id="path3477"
     inkscape:connector-curvature="0"
     style="fill:#404041" /><path
     class="st0"
     d="m 430.2,153.3 0,6.7 c 3,-3.1 9.2,-8.9 20.5,-8.9 4.7,0 15.2,0.9 23.6,10.8 3.8,4.6 9.9,14.2 9.9,29 0,4 -0.3,15.1 -7.4,25 -8.7,12.3 -20.7,13.6 -26.3,13.6 -4.4,0 -12.3,-0.9 -20.4,-8.3 l 0,30.1 -17.6,0 0,-98 17.7,0 z m 17.4,14.3 c -12.6,0 -17.7,11.8 -17.7,22.2 0,12.7 6.2,23.1 18.2,23.1 6.9,0 17.6,-4.1 17.6,-22.9 0,-15.7 -9.5,-22.4 -18.1,-22.4 z"
     id="path3479"
     inkscape:connector-curvature="0"
     style="fill:#404041" /><path
     class="st0"
     d="m 558.2,153.3 0,15.7 -26,0 0,58.2 -17.7,0 0,-58.2 -26,0 0,-15.7 69.7,0 z"
     id="path3481"
     inkscape:connector-curvature="0"
     style="fill:#404041" /><path
     class="st1"
     d="m 673.8,227.2 -0.4,-5.8 c -4.9,3.8 -12.7,7.5 -21.7,7.5 -16.8,0 -26.9,-10.2 -26.9,-22.6 0,-16.1 12.3,-22.5 26.3,-25 11.1,-2.1 18,-3.8 22.8,-5.5 0,-5.6 -1.6,-11.1 -12.7,-11.1 -13.4,0 -14.9,7.2 -14.9,11.1 l -18,-1 c 0.3,-4.9 1.3,-23.8 32.4,-23.8 21.7,0 31,8 31,21 l 0,43.2 c 0,5.6 0.3,7.2 3.3,12 l -21.2,0 z m 0,-36.8 c -3,1.5 -7.2,3.1 -14,4.1 -8.1,1.2 -16.3,2.8 -16.3,10.2 0,4.9 3.3,9 12.1,9 8.1,0 18.2,-4.1 18.2,-13.4 l 0,-9.9 z"
     id="path3483"
     inkscape:connector-curvature="0"
     style="fill:#0aabe1" /><path
     class="st1"
     d="m 720,201.5 c 2.7,7.1 7.5,13.7 19.2,13.7 10.9,0 15.5,-3.7 15.5,-10.5 0,-9.3 -9.9,-9.3 -17.7,-9.3 l -5.9,0 0,-13 5.9,0 c 8.4,0 17,0 17,-9 0,-5.5 -4.4,-8.1 -13.7,-8.1 -5.8,0 -14.8,1.9 -17,9.5 L 707.2,168 c 3.7,-7.8 11.4,-16.8 33.8,-16.8 17.6,0 30.4,6.2 30.4,21 0,7.7 -3.4,13.3 -14,16.6 5,1.5 15.1,4.6 15.1,17.4 0,13.2 -9.2,23.4 -32.8,23.4 -22.9,0 -31.2,-10 -35.2,-20 l 15.5,-8.1 z"
     id="path3485"
     inkscape:connector-curvature="0"
     style="fill:#0aabe1" /><text
     class="st1 st2 st3"
     id="text3487"
     style="font-size:149.40840149px;font-family:Arial;fill:#0aabe1"
     x="559.12012"
     y="227.2296">Г</text>
</svg>
